<?xml version="1.0" standalone="no"?><!DOCTYPE svg PUBLIC "-//W3C//DTD SVG 1.1//EN" "http://www.w3.org/Graphics/SVG/1.1/DTD/svg11.dtd"><svg t="1622293309222" class="icon" viewBox="0 0 1024 1024" version="1.1" xmlns="http://www.w3.org/2000/svg" p-id="2280" xmlns:xlink="http://www.w3.org/1999/xlink" width="200" height="200"><defs><style type="text/css"></style></defs><path d="M300.8 230.4l179.2 0 0 115.2-179.2 0 0-115.2Z" p-id="2281"></path><path d="M524.8 230.4l211.2 0 0 115.2-211.2 0 0-115.2Z" p-id="2282"></path><path d="M620.8 390.4l115.2 0 0 115.2-115.2 0 0-115.2Z" p-id="2283"></path><path d="M300.8 544l179.2 0 0 115.2-179.2 0 0-115.2Z" p-id="2284"></path><path d="M512 544l211.2 0 0 115.2-211.2 0 0-115.2Z" p-id="2285"></path><path d="M300.8 179.2l435.2 0-83.2-134.4L364.8 44.8 300.8 179.2z" p-id="2286"></path><path d="M384 390.4 576 390.4l0 115.2L384 505.6 384 390.4 384 390.4z" p-id="2287"></path><path d="M588.8 812.8 384 812.8l0-115.2 204.8 0L588.8 812.8 588.8 812.8z" p-id="2288"></path><path d="M300.8 704l51.2 0 0 108.8L300.8 812.8 300.8 704 300.8 704z" p-id="2289"></path><path d="M288 390.4l51.2 0 0 115.2L288 505.6 288 390.4 288 390.4z" p-id="2290"></path><path d="M640 704l89.6 0 0 108.8L640 812.8 640 704 640 704z" p-id="2291"></path><path d="M480 972.8 300.8 972.8l0-115.2 179.2 0L480 972.8 480 972.8z" p-id="2292"></path><path d="M736 972.8 556.8 972.8l0-115.2 179.2 0L736 972.8 736 972.8z" p-id="2293"></path><path d="M76.8 729.6 76.8 480 25.6 480l121.6-147.2L256 480 204.8 480l0 371.2 0 0L0 851.2l0-121.6L76.8 729.6z" p-id="2294"></path><path d="M940.8 729.6 940.8 480l57.6 0-115.2-147.2L768 473.6l57.6 0 0 371.2 0 0L1024 844.8l0-115.2L940.8 729.6z" p-id="2295"></path></svg>